<svg width="243.75" height="36.967306334994944" viewBox="0 0 350 53.08126037845428" class="css-1j8o68f"><defs id="SvgjsDefs1610"></defs><g id="SvgjsG1611" featurekey="nameFeature-0" transform="matrix(1.8278670352958688,0,0,1.8278670352958688,-2.3396658307058646,-20.983912728465448)" fill="#111111"><path d="M29.96 40 l-0.28 -0.2 c-2.24 -1.32 -4.88 -1.4 -7.28 -0.44 c-1.8 0.72 -3.84 1.16 -5.92 1.16 c-8.4 0 -15.2 -6.28 -15.2 -14.52 s6.8 -14.52 15.2 -14.52 l1.52 0 c5.2 0 9.84 3.08 11.92 7.8 l-5.92 0 c-2.88 -4.4 -7.4 -6.92 -11.48 -5.96 c-5.4 1.28 -7.32 7.68 -5.12 14.88 c2.2 7.28 7.68 11.84 13.04 10.56 c2.12 -0.52 3.84 -1.92 4.96 -3.8 l0 -5.84 l-4.04 0 l0 -2 l8.6 0 l0 12.88 z M48.760000000000005 40 l-1.08 -0.28 c-1.8 -0.48 -3.76 -0.48 -5.44 0.04 c-0.68 0.2 -1.32 0.24 -1.96 0.24 c-3.92 0 -7.04 -3.08 -7.04 -6.96 c0 -3.8 3.12 -6.92 7.04 -6.92 c1.56 0 2.96 0.48 4.04 1.24 l0 -0.04 s0.32 -4.88 -1.84 -5.48 c-2.24 -0.64 -3.04 0.68 -4.68 3.16 l-3.36 -0.04 c1.04 -2.64 3.08 -4.48 5.96 -4.48 c1.08 0 2.2 0.2 3.28 0.52 c0 0 5.08 1.56 5.08 6.32 l0 12.68 z M36.48 34.04 c0.92 3 3.2 5.12 5.52 4.6 c2.24 -0.52 3.28 -3.44 2.36 -6.56 c-0.88 -2.96 -3.48 -5.08 -5.72 -4.52 c-2.28 0.56 -3.08 3.44 -2.16 6.48 z M52 40 l0 -1.08 c1.32 -1.4 2.16 -3.32 2.16 -5.24 l0 -7.4 c0 -1.56 -0.64 -2.92 -1.68 -4 l-0.44 -0.48 l0 -1.12 l6.44 0 l0 2.24 c1.28 -0.76 2.76 -1.24 4.28 -1.24 c2.16 0 3.88 0.6 5.08 2 c1.52 -1 3.8 -2 6 -2 c4.68 0 7.24 2.84 7.24 9.76 l0 2.24 c0 1.92 0.72 3.84 2.08 5.24 l0 1.08 l-8.52 0 l0 -1.08 c1.36 -1.4 2.12 -3.32 2.12 -5.24 l0 -4.84 c-0.04 -3.12 -2.8 -6.16 -5.6 -5.36 c-0.76 0.24 -1.8 0.92 -2.36 1.6 c0.8 1.48 1.16 3.64 1.16 6.36 l0 2.24 c0 1.92 0.84 3.84 2.12 5.24 l0 1.08 l-8.52 0 l0 -1.08 c1.36 -1.4 2.08 -3.32 2.08 -5.24 l0 -4.84 c0 -3.12 -2.76 -6.2 -5.64 -5.44 c-0.96 0.28 -1.52 1.24 -1.52 2.28 l0 8.04 c0 1.88 0.64 3.8 1.96 5.2 l0 1.08 l-8.44 0 z M85.4 40 l0 -1.08 c1.12 -1.4 1.72 -3.32 1.72 -5.24 l0 -6.64 c0 -1.96 -0.6 -3.84 -1.72 -5.24 l0 -1.12 l5.52 0 l0 13.04 c0 1.88 0.64 3.8 1.8 5.2 l0 1.08 l-7.32 0 z M88.48 18.92 c-1.52 0 -2.76 -1.28 -2.76 -2.8 c0 -1.56 1.24 -2.8 2.76 -2.8 c1.56 0 2.8 1.24 2.8 2.8 c0 1.52 -1.24 2.8 -2.8 2.8 z M95.16 40 l0 -1.16 c1.36 -1.36 2.04 -3.24 2.04 -5.2 l0 -11.36 l-1.84 0 l0 -1.6 l1.84 0 l0 -2.16 c0 -4.08 4.4 -6.72 8.28 -6.72 c4.92 0 6.2 4.44 6.2 4.44 l-3.08 0 c-1.28 -2.12 -2.52 -3.48 -4.12 -3.56 c-0.96 -0.08 -1.8 0.48 -2.2 1.36 c-0.36 0.88 -0.72 2.24 -0.72 4.48 l0 2.16 l11.56 0 l0 13 c0 1.92 0.72 3.8 2.08 5.16 l0 1.16 l-8.44 0 l0 -1.16 c1.24 -1.4 2.04 -3.24 2.04 -5.2 l0 -6.64 c0 -1.68 -0.64 -3.36 -1.64 -4.72 l-5.6 0 l0 11.32 c0 1.92 0.8 3.88 2.16 5.28 l0 1.12 l-8.56 0 z M135.24 34.96 l2.72 0 c-1.76 3.2 -5.16 5.44 -9.04 5.44 c-5.68 0 -11.12 -3.8 -11.12 -9.96 c0 -6.76 5.44 -10.08 11.12 -10.08 l1 0 c3.4 0 6.56 2.2 7.92 5.32 l-4.36 0 c-1.64 -2.52 -3.84 -3.88 -6.04 -3.88 c-3.12 0 -4.92 2.76 -4.92 6.28 c0 6.08 4.28 11.28 8 11.28 c2.4 0 4.16 -1.88 4.72 -4.4 z M157 33.88 l2.96 0 c-1.4 3.8 -5.08 6.52 -9.52 6.52 c-5.64 0 -10.12 -4.52 -10.12 -9.96 c0 -5.56 4.48 -10.08 10.12 -10.08 c5.56 0 10.08 4.4 10.16 9.88 l-16.24 0 c0.16 0.48 0.24 1 0.4 1.56 c1.28 4.4 4.32 7.56 7.4 7.56 c2.88 0 4.44 -2.72 4.84 -5.48 z M144.16 28.6 l12.28 0 c-1.36 -4.16 -4.56 -6.8 -7.56 -6.8 c-3.04 0 -4.76 2.92 -4.76 5.92 c0 0.28 0 0.6 0.04 0.88 z M162.64000000000001 40 l0 -1.08 c1.32 -1.4 2.04 -3.32 2.04 -5.24 l0 -6.64 c0 -1.96 -0.72 -3.84 -2.04 -5.24 l0 -1.12 l6.36 0 l0 2.24 c1.36 -0.76 2.92 -1.24 4.36 -1.24 c4.68 0 7.24 2.84 7.24 9.76 l0 2.24 c0 1.92 0.76 3.84 2.12 5.24 l0 1.08 l-8.56 0 l0 -1.08 c1.36 -1.4 2.12 -3.32 2.12 -5.24 l0 -4.84 c0 -3.12 -2.84 -6.2 -5.64 -5.44 c-1 0.28 -1.64 1.24 -1.64 2.28 l0 8.04 c0 1.88 0.8 3.8 2.08 5.2 l0 1.08 l-8.44 0 z M185.52 32.96 l0 -10.64 l-2.96 0 l0 -1.64 l2.96 0 l0 -6.64 l4.36 -2.08 l0 8.72 l2.88 0 l0 1.64 l-2.88 0 l0 10.4 c0 1.56 0.6 2.92 1.36 3.92 c0.44 0.6 0.96 1.04 1.52 1.36 l0 2.2 c-0.92 -0.04 -1.88 -0.24 -2.88 -0.64 c-2.32 -0.96 -4.36 -2.92 -4.36 -6.6 z"></path></g></svg>